<?xml version="1.0" encoding="UTF-8"?>
<svg xmlns="http://www.w3.org/2000/svg" version="1.1" viewBox="0 0 1000 1000">
  <!-- Generator: Adobe Illustrator 30.3.0, SVG Export Plug-In . SVG Version: 2.1.3 Build 182)  -->
  <defs>
    <style>
      .st0, .st1 {
        fill: none;
      }

      .st2, .st1, .st3 {
        display: none;
      }

      .st2, .st4 {
        fill: #dcf1f9;
      }

      .st5 {
        fill: #fff;
      }
    </style>
  </defs>
  <g id="Layer_3" class="st3">
    <rect class="st4" width="1000" height="1000"/>
  </g>
  <g id="Layer_2">
    <rect class="st1" x="0" width="1000" height="1000"/>
    <path d="M34.9,371.8c-7.4,5.3-11.8,13.9-11.8,23.1v426.8c0,6.4,5.1,11.7,11.4,11.7h575.9c6.3,0,11.4-5.2,11.4-11.7v-22.3c0-7.8,6.2-14.1,13.8-14.1h329.7c6.3,0,11.4-5.2,11.4-11.7v-379.2c0-9-4.3-17.6-11.4-22.9l-245.1-181.1c-4-2.9-9.3-3-13.3-.1l-172.7,127.7-202.2-149.4c-4-2.9-9.3-3-13.3-.1L34.9,371.8Z"/>
    <path class="st2" d="M434.3,824.8h-228.1v-315c7.3-14.4,40.5-70.9,114-70.9s106.8,56.6,114,70.9v315Z"/>
  </g>
  <g id="Layer_2_copy" class="st3">
    <path class="st0" d="M263.3,658.6l-16.8,16.8c-1.6,1.6-3.7,2.4-5.8,2.4s-4.2-.8-5.8-2.4c-3.2-3.2-3.2-8.5,0-11.7l28.5-28.5v-14.4h-41.8v104.1h41.8v-66.3Z"/>
    <path class="st0" d="M175.1,797.7h199.6v-146.5c0-1.1.2-2.3.7-3.3.8-1.8,19.2-43,67.8-43s67.1,41.3,67.9,43c.5,1,.7,2.2.7,3.3v54.7c.1.6.2,1.2.2,1.8s0,1.2-.2,1.8v88.3h63v-289.2H175.1v289.2Z"/>
    <rect class="st0" x="205" y="604.3" width="133.3" height="137.1" rx="8.3" ry="8.3"/>
    <path class="st0" d="M321.7,686.2l-21.7,21.7c-1.6,1.6-3.7,2.4-5.8,2.4s-4.2-.8-5.8-2.4c-3.2-3.2-3.2-8.5,0-11.7l33.4-33.4v-42h-41.8v104.1h41.8v-38.7Z"/>
    <path class="st0" d="M443.2,621.3c-33.5,0-48.7,25.3-52,31.7v140.8h104v-77.8h-26.7c-4.7,0-8.5-3.8-8.5-8.5s3.8-8.5,8.5-8.5h26.7v-46.1c-3.3-6.4-18.4-31.7-52-31.7Z"/>
    <polygon class="st0" points="376.9 360.1 189.1 491.9 558.7 491.9 376.9 360.1"/>
    <path class="st0" d="M742.6,624.1l-35.5,35.5c-1.6,1.6-3.7,2.4-5.8,2.4s-4.2-.8-5.8-2.4c-3.2-3.2-3.2-8.5,0-11.7l47.2-47.2v-11.1h-2.1c-.4,1.3-1.1,2.5-2.1,3.5l-32,32c-1.6,1.6-3.7,2.4-5.8,2.4s-4.2-.8-5.8-2.4c-3.2-3.2-3.2-8.5,0-11.7l23.8-23.8h-36.8v104.1h60.9v-69.5Z"/>
    <rect class="st0" x="0" width="1000" height="1000"/>
    <path class="st0" d="M771.6,346.8h30.3c4.5,0,8.2,3.7,8.2,8.2s-3.7,8.2-8.2,8.2h-30.3c-4.5,0-8.2-3.7-8.2-8.2s3.7-8.2,8.2-8.2Z"/>
    <path class="st0" d="M709.8,214.1l21.4-21.5c3.2-3.2,8.4-3.2,11.6,0,3.2,3.2,3.2,8.4,0,11.6l-21.5,21.5c-1.6,1.6-3.7,2.4-5.8,2.4s-4.2-.8-5.8-2.4c-3.2-3.2-3.2-8.4,0-11.6Z"/>
    <path class="st0" d="M572.3,133.5c0-4.5,3.7-8.2,8.2-8.2s8.2,3.7,8.2,8.2v30.3c0,4.5-3.7,8.2-8.2,8.2s-8.2-3.7-8.2-8.2v-30.3Z"/>
    <path class="st0" d="M491.2,265.7c23.8-23.8,55.6-37,89.3-37s65.4,13.1,89.3,37c30.1,30.1,41.8,71.6,35.1,110.6l-15.1-10.9c3-31.5-7.6-64-31.6-88.1-20.7-20.7-48.3-32.2-77.7-32.2s-56.9,11.4-77.7,32.2c-20.7,20.8-32.2,48.3-32.2,77.7s4.3,35.5,12.5,51l-24.5-17.8c-2.9-10.7-4.4-21.9-4.4-33.2,0-33.7,13.1-65.4,37-89.3Z"/>
    <path class="st0" d="M418.1,192.6c3.2-3.2,8.4-3.2,11.6,0l21.4,21.5c3.2,3.2,3.2,8.4,0,11.6-1.6,1.6-3.7,2.4-5.8,2.4s-4.2-.8-5.8-2.4l-21.4-21.4c-3.2-3.2-3.2-8.4,0-11.6Z"/>
    <path class="st0" d="M190.1,353.9c0-4.6,3.7-8.3,8.3-8.3h74.4c4.6,0,8.3,3.7,8.3,8.3v42.7l-16.5,11.6v-46h-57.9v86.6l-16.5,11.6v-106.5Z"/>
    <path class="st0" d="M582.9,874.7h-200c-3.9,0-7.1-3.2-7.1-7.1s3.2-7.1,7.1-7.1h200c3.9,0,7.1,3.2,7.1,7.1s-3.2,7.1-7.1,7.1Z"/>
    <path class="st0" d="M582.9,846.9H172.6c-3.9,0-7.1-3.2-7.1-7.1s3.2-7.1,7.1-7.1h410.3c3.9,0,7.1,3.2,7.1,7.1s-3.2,7.1-7.1,7.1Z"/>
    <path class="st0" d="M591.2,805.9c0,4.6-3.7,8.3-8.3,8.3H166.8c-4.6,0-8.3-3.7-8.3-8.3v-292.6l-28.9,20.2c-1.4,1-3.1,1.5-4.7,1.5-2.6,0-5.2-1.2-6.8-3.5-2.6-3.7-1.7-8.9,2-11.5l252-176.8c2.9-2,6.7-2,9.6,0l244.1,176.8c3.7,2.7,4.5,7.8,1.8,11.5-2.7,3.7-7.8,4.5-11.5,1.8l-24.9-18.1v290.5Z"/>
    <path class="st0" d="M635.4,573h153.5c4.6,0,8.3,3.7,8.3,8.3v120.6c0,4.6-3.7,8.3-8.3,8.3h-153.5c-4.6,0-8.3-3.7-8.3-8.3v-120.6c0-4.6,3.7-8.3,8.3-8.3Z"/>
    <path class="st0" d="M881.8,527.9c-2.7,3.7-7.8,4.5-11.5,1.8l-22.5-16.3v258.4c0,4.6-3.7,8.3-8.3,8.3h-236.7v-16.5h228.5v-256.1h-205l-22.8-16.5h213.5l-159.4-115.5-108.4,76.1-14.2-10.3,117.9-82.7c2.9-2,6.7-2,9.6,0l217.6,157.6c3.7,2.7,4.5,7.8,1.8,11.5Z"/>
    <rect class="st0" x="643.7" y="589.5" width="21.5" height="104.1"/>
    <rect class="st0" x="759.1" y="589.5" width="21.5" height="104.1"/>
    <path class="st5" d="M206.6,362.2h57.9v56l16.5-11.6v-52.7c0-4.6-3.7-8.3-8.3-8.3h-74.4c-4.6,0-8.3,3.7-8.3,8.3v116.5l16.5-11.6v-96.6Z"/>
    <path class="st5" d="M879.9,516.4l-217.6-157.6c-2.9-2.1-6.7-2.1-9.6,0l-127.9,92.8,14.2,10.3,118.4-86.1,159.4,115.5h-233.5l22.8,16.5h225v256.1h-248.5v16.5h256.8c4.6,0,8.3-3.7,8.3-8.3v-258.4l22.5,16.3c3.7,2.7,8.9,1.8,11.5-1.8,2.7-3.7,1.9-8.9-1.8-11.5Z"/>
    <path class="st5" d="M627.1,701.9c0,4.6,3.7,8.3,8.3,8.3h153.5c4.6,0,8.3-3.7,8.3-8.3v-120.6c0-4.6-3.7-8.3-8.3-8.3h-153.5c-4.6,0-8.3,3.7-8.3,8.3v120.6Z"/>
    <rect class="st5" x="759.1" y="589.5" width="21.5" height="104.1"/>
    <path class="st5" d="M681.7,589.5h36.8l-23.8,23.8c-3.2,3.2-3.2,8.5,0,11.7,1.6,1.6,3.7,2.4,5.8,2.4s4.2-.8,5.8-2.4l32-32c1-1,1.7-2.2,2.1-3.5h2.1v11.1l-47.2,47.2c-3.2,3.2-3.2,8.5,0,11.7,1.6,1.6,3.7,2.4,5.8,2.4s4.2-.8,5.8-2.4l35.5-35.5v69.5h-60.9v-104.1Z"/>
    <rect class="st5" x="643.7" y="589.5" width="21.5" height="104.1"/>
    <path class="st5" d="M627.7,531.6c2.7-3.7,1.9-8.9-1.8-11.5l-244.1-176.8c-2.9-2.1-6.7-2.1-9.6,0l-252,176.8c-3.7,2.6-4.6,7.8-2,11.5,1.6,2.3,4.2,3.5,6.8,3.5s3.3-.5,4.7-1.5l28.9-20.2v292.6c0,4.6,3.7,8.3,8.3,8.3h416.2c4.6,0,8.3-3.7,8.3-8.3v-290.5l24.9,18.1c3.7,2.7,8.9,1.9,11.5-1.8Z"/>
    <polygon class="st5" points="376.9 360.1 558.7 491.9 189.1 491.9 376.9 360.1"/>
    <path class="st5" d="M495.2,699.1h-26.7c-4.7,0-8.5,3.8-8.5,8.5s3.8,8.5,8.5,8.5h26.7v77.8h-104v-140.8c3.3-6.4,18.5-31.7,52-31.7s48.7,25.3,52,31.7v46.1Z"/>
    <path class="st5" d="M574.7,797.7h-63v-88.3c.1-.6.2-1.2.2-1.8s0-1.2-.2-1.8v-54.7c0-1.1-.2-2.3-.7-3.3-.8-1.8-19.2-43-67.9-43s-67.1,41.3-67.8,43c-.4,1-.7,2.2-.7,3.3v146.5h-199.6v-289.2h399.6v289.2Z"/>
    <rect class="st5" x="205" y="604.3" width="133.3" height="137.1" rx="8.3" ry="8.3"/>
    <path class="st5" d="M279.9,620.8h41.8v42l-33.4,33.4c-3.2,3.2-3.2,8.5,0,11.7,1.6,1.6,3.7,2.4,5.8,2.4s4.2-.8,5.8-2.4l21.7-21.7v38.7h-41.8v-104.1Z"/>
    <path class="st5" d="M221.5,620.8h41.8v14.4l-28.5,28.5c-3.2,3.2-3.2,8.5,0,11.7,1.6,1.6,3.7,2.4,5.8,2.4s4.2-.8,5.8-2.4l16.8-16.8v66.3h-41.8v-104.1Z"/>
  </g>
</svg>