<?xml version="1.0" encoding="UTF-8"?>
<svg id="Layer_2" xmlns="http://www.w3.org/2000/svg" version="1.1" viewBox="0 0 993.7 904.3">
  <!-- Generator: Adobe Illustrator 30.3.0, SVG Export Plug-In . SVG Version: 2.1.3 Build 182)  -->
  <defs>
    <style>
      .st0 {
        fill: none;
      }

      .st1 {
        display: none;
        fill: #efede8;
      }

      .st2 {
        fill: #3c3932;
      }
    </style>
  </defs>
  <g id="Layer_2-2">
    <polygon class="st1" points="945.4 689.1 48.7 689.1 48.7 897.7 582.9 897.7 945.4 689.1"/>
    <polygon class="st0" points="59.2 891.1 580.8 891.1 920.3 695.8 378.8 695.8 368.3 695.8 59.2 891.1"/>
    <polygon class="st2" points="378.8 695.8 374.5 691.9 368.3 695.8 378.8 695.8"/>
    <path class="st2" d="M945.4,695.8h-25.1l-339.5,195.3H59.2l-10.5,6.6v-215.2c-4,0-7.3,3-7.3,6.6v208.5c0,3.7,3.3,6.6,7.3,6.6h534.2,0c1.4,0,2.7-.3,3.9-1l362.5-208.5c2.1-1.2,3.4-3.4,3.4-5.6l-7.3,6.6h0Z"/>
    <rect class="st1" x="386.1" y="246.4" width="552" height="436.1"/>
    <path class="st2" d="M952.7,239.8l-7.3-6.6H378.8l-7.3,6.6v43.1l7.3,8.1v398.2l-4.3,2.7,4.3,3.9h566.6,0s7.3-6.6,7.3-6.6h0V239.8ZM938.1,246.4v436.1H386.1V246.4h552Z"/>
    <polygon class="st1" points="59.2 891.1 368.3 695.8 374.5 691.9 378.8 689.1 378.8 291 371.5 282.9 275 176 48.7 438.2 48.7 682.5 48.7 897.7 59.2 891.1"/>
    <path class="st2" d="M52.8,903.1l-11.5-5.4v-459.4l1.5-4.1,226.3-262.3h11.4c0-.1,103.8,114.9,103.8,114.9l1.6,4.2v398.2l-3.1,5.4L52.8,903.1ZM56,440.5v444.5l315.6-199.3v-392.4l-96.4-106.8L56,440.5Z"/>
    <path class="st2" d="M991,257L680.1,0l-417.8,161.4h0L1.9,450c-2.9,3.2-2.4,8,1.2,10.6l21.3,15.9c3.6,2.6,8.8,2.2,11.7-1l254.6-282.1,292.5,324,406.8-248.5c4.5-2.7,5-8.6,1-11.9h0Z"/>
    <rect class="st2" x="576.7" y="454.6" width="12.5" height="443.1"/>
  </g>
</svg>