<?xml version="1.0" encoding="UTF-8"?><svg id="Layer_2" xmlns="http://www.w3.org/2000/svg" viewBox="0 0 192.41 206.69"><defs><style>.cls-1{fill:#252e1c;}</style></defs><g id="Layer_2-2"><g id="Generative_Object_-15_0_"><polygon class="cls-1" points="192.11 164.81 107.4 200.32 91.83 206.69 91.92 172.15 92.04 129.95 92.25 76.31 131.29 84.2 169.42 91.81 192.09 96.29 192.11 164.81"/><path class="cls-1" d="M55.07,204.11l-25.89-1.68L0,200.54v-115.15s13.07-1.21,13.07-1.21l55.27-5.7,20.79-2.13-.09,22.1-.28,36.45-.11,25.29-.13,34.61.05,11.62-33.51-2.31Z"/><polygon class="cls-1" points="192.41 93.35 123.24 79.12 91.75 72.55 75.78 48.22 65.62 32.8 44.6 1.06 60.43 6.85 82.65 15.09 162.22 44.53 192.41 93.35"/><polygon class="cls-1" points="63.38 74.85 2.69 81.02 24.5 31.75 38.71 0 59.76 30.1 88.98 72.31 63.38 74.85"/></g></g></svg>