<?xml version="1.0" encoding="UTF-8"?>
<svg xmlns="http://www.w3.org/2000/svg" version="1.1" viewBox="0 0 1000 1000">
  <defs>
    <style>
      .logo-stroke {
        fill: #fff;
        stroke: none;
      }
    </style>
  </defs>
  <!-- Dark charcoal background -->
  <rect width="1000" height="1000" fill="#1C1C1C"/>

  <!-- White house logo strokes -->
  <path class="logo-stroke" d="M483.1,406c-8.2-15.5-12.5-32.9-12.5-51,0-29.3,11.4-56.9,32.2-77.7,20.8-20.7,48.3-32.2,77.7-32.2s56.9,11.4,77.7,32.2c24.1,24.1,34.6,56.6,31.6,88.1l15.1,10.9c6.6-39-5.1-80.6-35.1-110.6-23.8-23.8-55.6-37-89.3-37s-65.4,13.1-89.3,37c-23.8,23.8-37,55.6-37,89.3s1.5,22.5,4.4,33.2l24.5,17.8Z"/>
  <path class="logo-stroke" d="M580.5,172.1c4.5,0,8.2-3.7,8.2-8.2v-30.3c0-4.5-3.7-8.2-8.2-8.2s-8.2,3.7-8.2,8.2v30.3c0,4.5,3.7,8.2,8.2,8.2Z"/>
  <path class="logo-stroke" d="M715.6,228.1c2.1,0,4.2-.8,5.8-2.4l21.5-21.5c3.2-3.2,3.2-8.4,0-11.6-3.2-3.2-8.4-3.2-11.6,0l-21.4,21.5c-3.2,3.2-3.2,8.4,0,11.6,1.6,1.6,3.7,2.4,5.8,2.4Z"/>
  <path class="logo-stroke" d="M771.6,363.2h30.3c4.5,0,8.2-3.7,8.2-8.2s-3.7-8.2-8.2-8.2h-30.3c-4.5,0-8.2,3.7-8.2,8.2s3.7,8.2,8.2,8.2Z"/>
  <path class="logo-stroke" d="M439.5,225.6c1.6,1.6,3.7,2.4,5.8,2.4s4.2-.8,5.8-2.4c3.2-3.2,3.2-8.4,0-11.6l-21.4-21.5c-3.2-3.2-8.4-3.2-11.6,0-3.2,3.2-3.2,8.4,0,11.6l21.4,21.4Z"/>
  <path class="logo-stroke" d="M206.6,362.2h57.9v46l16.5-11.6v-42.7c0-4.6-3.7-8.3-8.3-8.3h-74.4c-4.6,0-8.3,3.7-8.3,8.3v106.5l16.5-11.6v-86.6Z"/>
  <path class="logo-stroke" d="M879.9,516.4l-217.6-157.6c-2.9-2.1-6.7-2.1-9.6,0l-117.9,82.7,14.2,10.3,108.4-76.1,159.4,115.5h-213.5l22.8,16.5h205v256.1h-228.5v16.5h236.7c4.6,0,8.3-3.7,8.3-8.3v-258.4l22.5,16.3c3.7,2.7,8.9,1.8,11.5-1.8,2.7-3.7,1.9-8.9-1.8-11.5Z"/>
  <path class="logo-stroke" d="M627.1,701.9c0,4.6,3.7,8.3,8.3,8.3h153.5c4.6,0,8.3-3.7,8.3-8.3v-120.6c0-4.6-3.7-8.3-8.3-8.3h-153.5c-4.6,0-8.3,3.7-8.3,8.3v120.6ZM759.1,589.5h21.5v104.1h-21.5v-104.1ZM681.7,589.5h36.8l-23.8,23.8c-3.2,3.2-3.2,8.5,0,11.7,1.6,1.6,3.7,2.4,5.8,2.4s4.2-.8,5.8-2.4l32-32c1-1,1.7-2.2,2.1-3.5h2.1v11.1l-47.2,47.2c-3.2,3.2-3.2,8.5,0,11.7,1.6,1.6,3.7,2.4,5.8,2.4s4.2-.8,5.8-2.4l35.5-35.5v69.5h-60.9v-104.1ZM643.7,589.5h21.5v104.1h-21.5v-104.1Z"/>
  <path class="logo-stroke" d="M627.7,531.6c2.7-3.7,1.9-8.9-1.8-11.5l-244.1-176.8c-2.9-2.1-6.7-2.1-9.6,0l-252,176.8c-3.7,2.6-4.6,7.8-2,11.5,1.6,2.3,4.2,3.5,6.8,3.5s3.3-.5,4.7-1.5l28.9-20.2v292.6c0,4.6,3.7,8.3,8.3,8.3h416.2c4.6,0,8.3-3.7,8.3-8.3v-290.5l24.9,18.1c3.7,2.7,8.9,1.9,11.5-1.8ZM376.9,360.1l181.9,131.8H189.1l187.8-131.8ZM495.2,699.1h-26.7c-4.7,0-8.5,3.8-8.5,8.5s3.8,8.5,8.5,8.5h26.7v77.8h-104v-140.8c3.3-6.4,18.5-31.7,52-31.7s48.7,25.3,52,31.7v46.1ZM574.7,797.7h-63v-88.3c.1-.6.2-1.2.2-1.8s0-1.2-.2-1.8v-54.7c0-1.1-.2-2.3-.7-3.3-.8-1.8-19.2-43-67.9-43s-67.1,41.3-67.8,43c-.4,1-.7,2.2-.7,3.3v146.5h-199.6v-289.2h399.6v289.2Z"/>
  <path class="logo-stroke" d="M582.9,860.5h-200c-3.9,0-7.1,3.2-7.1,7.1s3.2,7.1,7.1,7.1h200c3.9,0,7.1-3.2,7.1-7.1s-3.2-7.1-7.1-7.1Z"/>
  <path class="logo-stroke" d="M582.9,832.7H172.6c-3.9,0-7.1,3.2-7.1,7.1s3.2,7.1,7.1,7.1h410.3c3.9,0,7.1-3.2,7.1-7.1s-3.2-7.1-7.1-7.1Z"/>
  <path class="logo-stroke" d="M213.2,741.4h116.7c4.6,0,8.3-3.7,8.3-8.3v-120.6c0-4.6-3.7-8.3-8.3-8.3h-116.7c-4.6,0-8.3,3.7-8.3,8.3v120.6c0,4.6,3.7,8.3,8.3,8.3ZM279.9,620.8h41.8v42l-33.4,33.4c-3.2,3.2-3.2,8.5,0,11.7,1.6,1.6,3.7,2.4,5.8,2.4s4.2-.8,5.8-2.4l21.7-21.7v38.7h-41.8v-104.1ZM221.5,620.8h41.8v14.4l-28.5,28.5c-3.2,3.2-3.2,8.5,0,11.7,1.6,1.6,3.7,2.4,5.8,2.4s4.2-.8,5.8-2.4l16.8-16.8v66.3h-41.8v-104.1Z"/>
</svg>
