<?xml version="1.0" encoding="UTF-8"?>
<svg id="Layer_1" xmlns="http://www.w3.org/2000/svg" version="1.1" viewBox="0 0 90 100">
  <!-- Generator: Adobe Illustrator 30.3.0, SVG Export Plug-In . SVG Version: 2.1.3 Build 182)  -->
  <defs>
    <style>
      .st0 {
        fill: none;
      }

      .st1 {
        fill: #231f20;
      }
    </style>
  </defs>
  <rect class="st0" x="-34.07" y="-37.78" width="158.42" height="175.56"/>
  <g>
    <path class="st1" d="M6.91,86.71h1.8c1.17,0,2.05,0,2.73.61.59.54.89,1.26.89,2.13,0,1.42-1.05,2.47-2.66,2.47h-1.17l3.69,6h1.45l-3.01-4.86c1.75-.12,3.01-1.73,3.01-3.62,0-1.29-.61-2.54-1.61-3.24-.88-.61-1.82-.72-2.99-.72h-3.34v12.44h1.21v-11.22h0Z"/>
    <polygon class="st1" points="19.44 91.07 19.44 86.71 24.67 86.71 24.67 85.49 18.22 85.49 18.22 97.93 24.67 97.93 24.67 96.72 19.44 96.72 19.44 92.29 24.67 92.29 24.67 91.07 19.44 91.07 19.44 91.07"/>
    <path class="st1" d="M35.92,92.91h-4.69l2.33-6.25,2.36,6.25h0ZM29.32,97.93l1.49-3.9h5.53l1.49,3.9h1.31l-4.81-12.44h-1.47l-4.83,12.44h1.29Z"/>
    <polygon class="st1" points="48.29 97.93 48.29 96.72 43.91 96.72 43.91 85.49 42.69 85.49 42.69 97.93 48.29 97.93 48.29 97.93"/>
    <polygon class="st1" points="54.44 97.93 54.44 86.71 56.92 86.71 56.92 85.49 50.73 85.49 50.73 86.71 53.21 86.71 53.21 97.93 54.44 97.93 54.44 97.93"/>
    <path class="st1" d="M59.52,91.63c0,3.71,2.75,6.55,6.32,6.55,1.87,0,3.48-.72,4.74-2.1,1.1-1.21,1.64-2.68,1.64-4.45s-.64-3.32-1.91-4.57c-1.23-1.21-2.71-1.82-4.46-1.82s-3.18.61-4.39,1.8c-1.26,1.24-1.94,2.85-1.94,4.58h0ZM60.8,91.65c0-1.52.74-3.06,1.91-4.06.89-.75,1.98-1.15,3.13-1.15,2.89,0,5.13,2.42,5.13,5.18,0,3.06-2.24,5.39-5.04,5.39s-5.13-2.27-5.13-5.35h0Z"/>
    <path class="st1" d="M77.57,86.71h1.8c1.17,0,2.05,0,2.73.61.6.54.89,1.26.89,2.13,0,1.42-1.05,2.47-2.66,2.47h-1.17l3.69,6h1.45l-3.01-4.86c1.75-.12,3.01-1.73,3.01-3.62,0-1.29-.61-2.54-1.61-3.24-.88-.61-1.82-.72-2.99-.72h-3.34v12.44h1.21v-11.22h0Z"/>
    <path class="st1" d="M5.53,1.83v79.21h79.21V1.83H5.53ZM47.65,11.33h8.83c8.15.83,14.06,7.19,13.99,15.07-.07,7.8-5.92,13.99-13.99,14.81h-8.83V11.33ZM39.09,71.07h-22.33V11.24h22.33v59.84ZM47.65,71.17v-29.77l30.97,29.77h-30.97Z"/>
    <path class="st1" d="M86.05,83.19c-.61,0-1.16.23-1.57.65-.43.44-.67,1.01-.67,1.6s.24,1.16.66,1.58c.43.44.99.67,1.58.67s1.16-.24,1.6-.67c.42-.42.65-.96.65-1.58s-.23-1.17-.65-1.59c-.43-.44-.99-.66-1.6-.66h0ZM88.06,85.45c0,.55-.19,1.03-.57,1.4-.4.39-.91.6-1.44.6s-1.03-.21-1.41-.59-.59-.88-.59-1.41.21-1.03.6-1.43c.37-.37.85-.58,1.39-.58s1.05.21,1.44.59.57.87.57,1.42h0ZM86.12,84.11h-.95v2.59h.39v-1.14h.6l.55,1.14h.45l-.58-1.19c.38-.05.61-.32.61-.68,0-.5-.36-.72-1.07-.72h0ZM86.05,84.37c.51,0,.74.13.74.48s-.23.45-.74.45h-.48v-.93h.48Z"/>
  </g>
</svg>